<svg width="51" height="51" viewBox="0 0 51 51" fill="none" xmlns="http://www.w3.org/2000/svg">
<g filter="url(#filter0_d_3340_2159)">
<circle cx="25.2143" cy="21.2143" r="21.2143" fill="white"/>
</g>
<path d="M21.2824 24.4924L17.3824 20.5924L21.2824 16.6924C21.3751 16.6009 21.4486 16.4919 21.4988 16.3718C21.549 16.2516 21.5749 16.1227 21.5749 15.9924C21.5749 15.8622 21.549 15.7333 21.4988 15.6131C21.4486 15.493 21.3751 15.384 21.2824 15.2924C21.1909 15.1998 21.0819 15.1262 20.9618 15.076C20.8416 15.0258 20.7127 15 20.5824 15C20.4522 15 20.3233 15.0258 20.2031 15.076C20.083 15.1262 19.974 15.1998 19.8824 15.2924L15.2924 19.8824C15.1997 19.975 15.1262 20.0848 15.076 20.2058C15.0258 20.3268 15 20.4565 15 20.5874C15 20.7184 15.0258 20.8481 15.076 20.9691C15.1262 21.09 15.1997 21.1999 15.2924 21.2924L19.8824 25.8924C20.2724 26.2824 20.8924 26.2824 21.2824 25.8924C21.3751 25.8009 21.4486 25.6919 21.4988 25.5718C21.549 25.4516 21.5749 25.3227 21.5749 25.1924C21.5749 25.0622 21.549 24.9333 21.4988 24.8131C21.4486 24.693 21.3751 24.584 21.2824 24.4924ZM27.8824 24.4924L31.7824 20.5924L27.8824 16.6924C27.7898 16.6009 27.7163 16.4919 27.6661 16.3718C27.6159 16.2516 27.59 16.1227 27.59 15.9924C27.59 15.8622 27.6159 15.7333 27.6661 15.6131C27.7163 15.493 27.7898 15.384 27.8824 15.2924C27.974 15.1998 28.083 15.1262 28.2031 15.076C28.3233 15.0258 28.4522 15 28.5824 15C28.7127 15 28.8416 15.0258 28.9618 15.076C29.0819 15.1262 29.1909 15.1998 29.2824 15.2924L33.8724 19.8824C34.2624 20.2724 34.2624 20.9024 33.8724 21.2924L29.2824 25.8924C29.1909 25.9851 29.0819 26.0586 28.9618 26.1088C28.8416 26.159 28.7127 26.1849 28.5824 26.1849C28.4522 26.1849 28.3233 26.159 28.2031 26.1088C28.083 26.0586 27.974 25.9851 27.8824 25.8924C27.7898 25.8009 27.7163 25.6919 27.6661 25.5718C27.6159 25.4516 27.59 25.3227 27.59 25.1924C27.59 25.0622 27.6159 24.9333 27.6661 24.8131C27.7163 24.693 27.7898 24.584 27.8824 24.4924Z" fill="#5A2E7E" stroke="#5A2E7E" stroke-width="0.5"/>
<defs>
<filter id="filter0_d_3340_2159" x="0" y="0" width="50.4277" height="50.4286" filterUnits="userSpaceOnUse" color-interpolation-filters="sRGB">
<feFlood flood-opacity="0" result="BackgroundImageFix"/>
<feColorMatrix in="SourceAlpha" type="matrix" values="0 0 0 0 0 0 0 0 0 0 0 0 0 0 0 0 0 0 127 0" result="hardAlpha"/>
<feOffset dy="4"/>
<feGaussianBlur stdDeviation="2"/>
<feComposite in2="hardAlpha" operator="out"/>
<feColorMatrix type="matrix" values="0 0 0 0 0 0 0 0 0 0 0 0 0 0 0 0 0 0 0.25 0"/>
<feBlend mode="normal" in2="BackgroundImageFix" result="effect1_dropShadow_3340_2159"/>
<feBlend mode="normal" in="SourceGraphic" in2="effect1_dropShadow_3340_2159" result="shape"/>
</filter>
</defs>
</svg>
