<svg width="87" height="87" viewBox="0 0 87 87" fill="none" xmlns="http://www.w3.org/2000/svg">
<g filter="url(#filter0_d_3337_2028)">
<circle cx="43.5" cy="39.5" r="39.5" fill="white"/>
</g>
<path d="M52.8889 44.4H35.1111C34.5217 44.4 33.9565 44.6318 33.5398 45.0444C33.123 45.4569 32.8889 46.0165 32.8889 46.6C32.8889 47.1835 33.123 47.7431 33.5398 48.1556C33.9565 48.5682 34.5217 48.8 35.1111 48.8H52.8889C53.4783 48.8 54.0435 48.5682 54.4602 48.1556C54.877 47.7431 55.1111 47.1835 55.1111 46.6C55.1111 46.0165 54.877 45.4569 54.4602 45.0444C54.0435 44.6318 53.4783 44.4 52.8889 44.4ZM52.8889 35.6H39.5556C38.9662 35.6 38.401 35.8318 37.9842 36.2444C37.5675 36.6569 37.3333 37.2165 37.3333 37.8C37.3333 38.3835 37.5675 38.9431 37.9842 39.3556C38.401 39.7682 38.9662 40 39.5556 40H52.8889C53.4783 40 54.0435 39.7682 54.4602 39.3556C54.877 38.9431 55.1111 38.3835 55.1111 37.8C55.1111 37.2165 54.877 36.6569 54.4602 36.2444C54.0435 35.8318 53.4783 35.6 52.8889 35.6ZM61.7778 22.4H55.1111V20.2C55.1111 19.6165 54.877 19.0569 54.4602 18.6444C54.0435 18.2318 53.4783 18 52.8889 18C52.2995 18 51.7343 18.2318 51.3175 18.6444C50.9008 19.0569 50.6667 19.6165 50.6667 20.2V22.4H46.2222V20.2C46.2222 19.6165 45.9881 19.0569 45.5713 18.6444C45.1546 18.2318 44.5894 18 44 18C43.4106 18 42.8454 18.2318 42.4287 18.6444C42.0119 19.0569 41.7778 19.6165 41.7778 20.2V22.4H37.3333V20.2C37.3333 19.6165 37.0992 19.0569 36.6825 18.6444C36.2657 18.2318 35.7005 18 35.1111 18C34.5217 18 33.9565 18.2318 33.5398 18.6444C33.123 19.0569 32.8889 19.6165 32.8889 20.2V22.4H26.2222C25.6329 22.4 25.0676 22.6318 24.6509 23.0444C24.2341 23.4569 24 24.0165 24 24.6V55.4C24 57.1504 24.7024 58.8292 25.9526 60.0669C27.2029 61.3046 28.8986 62 30.6667 62H57.3333C59.1014 62 60.7971 61.3046 62.0474 60.0669C63.2976 58.8292 64 57.1504 64 55.4V24.6C64 24.0165 63.7659 23.4569 63.3491 23.0444C62.9324 22.6318 62.3671 22.4 61.7778 22.4ZM59.5556 55.4C59.5556 55.9835 59.3214 56.5431 58.9047 56.9556C58.4879 57.3682 57.9227 57.6 57.3333 57.6H30.6667C30.0773 57.6 29.5121 57.3682 29.0953 56.9556C28.6786 56.5431 28.4444 55.9835 28.4444 55.4V26.8H32.8889V29C32.8889 29.5835 33.123 30.1431 33.5398 30.5556C33.9565 30.9682 34.5217 31.2 35.1111 31.2C35.7005 31.2 36.2657 30.9682 36.6825 30.5556C37.0992 30.1431 37.3333 29.5835 37.3333 29V26.8H41.7778V29C41.7778 29.5835 42.0119 30.1431 42.4287 30.5556C42.8454 30.9682 43.4106 31.2 44 31.2C44.5894 31.2 45.1546 30.9682 45.5713 30.5556C45.9881 30.1431 46.2222 29.5835 46.2222 29V26.8H50.6667V29C50.6667 29.5835 50.9008 30.1431 51.3175 30.5556C51.7343 30.9682 52.2995 31.2 52.8889 31.2C53.4783 31.2 54.0435 30.9682 54.4602 30.5556C54.877 30.1431 55.1111 29.5835 55.1111 29V26.8H59.5556V55.4Z" fill="#5A2E7E"/>
<defs>
<filter id="filter0_d_3337_2028" x="0" y="0" width="87" height="87" filterUnits="userSpaceOnUse" color-interpolation-filters="sRGB">
<feFlood flood-opacity="0" result="BackgroundImageFix"/>
<feColorMatrix in="SourceAlpha" type="matrix" values="0 0 0 0 0 0 0 0 0 0 0 0 0 0 0 0 0 0 127 0" result="hardAlpha"/>
<feOffset dy="4"/>
<feGaussianBlur stdDeviation="2"/>
<feComposite in2="hardAlpha" operator="out"/>
<feColorMatrix type="matrix" values="0 0 0 0 0 0 0 0 0 0 0 0 0 0 0 0 0 0 0.25 0"/>
<feBlend mode="normal" in2="BackgroundImageFix" result="effect1_dropShadow_3337_2028"/>
<feBlend mode="normal" in="SourceGraphic" in2="effect1_dropShadow_3337_2028" result="shape"/>
</filter>
</defs>
</svg>
