<svg width="87" height="87" viewBox="0 0 87 87" fill="none" xmlns="http://www.w3.org/2000/svg">
<g filter="url(#filter0_d_3337_2064)">
<circle cx="43.5" cy="39.5" r="39.5" fill="white"/>
</g>
<path d="M55.6667 25.4H48.7C48 23.428 46.1667 22 44 22C41.8333 22 40 23.428 39.3 25.4H32.3333C31.4493 25.4 30.6014 25.7582 29.9763 26.3958C29.3512 27.0335 29 27.8983 29 28.8V52.6C29 53.5017 29.3512 54.3665 29.9763 55.0042C30.6014 55.6418 31.4493 56 32.3333 56H55.6667C56.5507 56 57.3986 55.6418 58.0237 55.0042C58.6488 54.3665 59 53.5017 59 52.6V28.8C59 27.8983 58.6488 27.0335 58.0237 26.3958C57.3986 25.7582 56.5507 25.4 55.6667 25.4ZM44 25.4C44.442 25.4 44.8659 25.5791 45.1785 25.8979C45.4911 26.2167 45.6667 26.6491 45.6667 27.1C45.6667 27.5509 45.4911 27.9833 45.1785 28.3021C44.8659 28.6209 44.442 28.8 44 28.8C43.558 28.8 43.134 28.6209 42.8215 28.3021C42.5089 27.9833 42.3333 27.5509 42.3333 27.1C42.3333 26.6491 42.5089 26.2167 42.8215 25.8979C43.134 25.5791 43.558 25.4 44 25.4ZM35.6667 32.2H52.3333V28.8H55.6667V52.6H32.3333V28.8H35.6667V32.2Z" fill="#5A2E7E"/>
<defs>
<filter id="filter0_d_3337_2064" x="0" y="0" width="87" height="87" filterUnits="userSpaceOnUse" color-interpolation-filters="sRGB">
<feFlood flood-opacity="0" result="BackgroundImageFix"/>
<feColorMatrix in="SourceAlpha" type="matrix" values="0 0 0 0 0 0 0 0 0 0 0 0 0 0 0 0 0 0 127 0" result="hardAlpha"/>
<feOffset dy="4"/>
<feGaussianBlur stdDeviation="2"/>
<feComposite in2="hardAlpha" operator="out"/>
<feColorMatrix type="matrix" values="0 0 0 0 0 0 0 0 0 0 0 0 0 0 0 0 0 0 0.25 0"/>
<feBlend mode="normal" in2="BackgroundImageFix" result="effect1_dropShadow_3337_2064"/>
<feBlend mode="normal" in="SourceGraphic" in2="effect1_dropShadow_3337_2064" result="shape"/>
</filter>
</defs>
</svg>
