<svg width="87" height="87" viewBox="0 0 87 87" fill="none" xmlns="http://www.w3.org/2000/svg">
<g filter="url(#filter0_d_3337_2052)">
<circle cx="43.5" cy="39.5" r="39.5" fill="white"/>
</g>
<path d="M58.0013 58.5016V52.8764C58.0013 47.5736 58.0013 44.9204 56.3531 43.2741C54.7068 41.6259 52.0535 41.6259 46.7508 41.6259H39.2505C33.9478 41.6259 31.2945 41.6259 29.6482 43.2741C28 44.9204 28 47.5736 28 52.8764C28 54.6239 28 55.4977 28.285 56.1859C28.4735 56.6412 28.7498 57.0549 29.0983 57.4033C29.4467 57.7518 29.8604 58.0281 30.3157 58.2166C31.0039 58.5016 31.8777 58.5016 33.6252 58.5016V42.5634M38.3129 41.6259L43.9382 58.5016" stroke="#5A2E7E" stroke-width="3" stroke-linecap="round" stroke-linejoin="round"/>
<path d="M43.0003 52.8764H47.688C48.4339 52.8764 49.1493 53.1727 49.6768 53.7002C50.2043 54.2277 50.5006 54.9431 50.5006 55.689C50.5006 56.435 50.2043 57.1504 49.6768 57.6778C49.1493 58.2053 48.4339 58.5016 47.688 58.5016H43.9378M49.5631 29.4379V27.5628C49.5631 26.7009 49.3933 25.8475 49.0635 25.0513C48.7337 24.2551 48.2503 23.5316 47.6409 22.9222C47.0315 22.3128 46.308 21.8294 45.5118 21.4996C44.7155 21.1698 43.8621 21 43.0003 21C42.1384 21 41.2851 21.1698 40.4888 21.4996C39.6926 21.8294 38.9691 22.3128 38.3597 22.9222C37.7503 23.5316 37.2669 24.2551 36.9371 25.0513C36.6073 25.8475 36.4375 26.7009 36.4375 27.5628V29.4379C36.4375 30.2997 36.6073 31.1531 36.9371 31.9493C37.2669 32.7456 37.7503 33.469 38.3597 34.0785C38.9691 34.6879 39.6926 35.1713 40.4888 35.5011C41.2851 35.8309 42.1384 36.0007 43.0003 36.0007C43.8621 36.0007 44.7155 35.8309 45.5118 35.5011C46.308 35.1713 47.0315 34.6879 47.6409 34.0785C48.2503 33.469 48.7337 32.7456 49.0635 31.9493C49.3933 31.1531 49.5631 30.2997 49.5631 29.4379Z" stroke="#5A2E7E" stroke-width="3" stroke-linecap="round" stroke-linejoin="round"/>
<defs>
<filter id="filter0_d_3337_2052" x="0" y="0" width="87" height="87" filterUnits="userSpaceOnUse" color-interpolation-filters="sRGB">
<feFlood flood-opacity="0" result="BackgroundImageFix"/>
<feColorMatrix in="SourceAlpha" type="matrix" values="0 0 0 0 0 0 0 0 0 0 0 0 0 0 0 0 0 0 127 0" result="hardAlpha"/>
<feOffset dy="4"/>
<feGaussianBlur stdDeviation="2"/>
<feComposite in2="hardAlpha" operator="out"/>
<feColorMatrix type="matrix" values="0 0 0 0 0 0 0 0 0 0 0 0 0 0 0 0 0 0 0.25 0"/>
<feBlend mode="normal" in2="BackgroundImageFix" result="effect1_dropShadow_3337_2052"/>
<feBlend mode="normal" in="SourceGraphic" in2="effect1_dropShadow_3337_2052" result="shape"/>
</filter>
</defs>
</svg>
