<svg width="87" height="87" viewBox="0 0 87 87" fill="none" xmlns="http://www.w3.org/2000/svg">
<g filter="url(#filter0_d_3337_2040)">
<circle cx="43.5" cy="39.5" r="39.5" fill="white"/>
</g>
<path d="M49 34.9984L39 44.9967M39 34.9984L49 44.9967M60 41.9972C60 51.9955 53 56.9947 44.68 59.8942C44.2443 60.0418 43.7711 60.0348 43.34 59.8742C35 56.9947 28 51.9955 28 41.9972V27.9996C28 27.4692 28.2107 26.9606 28.5858 26.5856C28.9609 26.2106 29.4696 25.9999 30 25.9999C34 25.9999 39 23.6003 42.48 20.5608C42.9037 20.1989 43.4427 20 44 20C44.5573 20 45.0963 20.1989 45.52 20.5608C49.02 23.6203 54 25.9999 58 25.9999C58.5304 25.9999 59.0391 26.2106 59.4142 26.5856C59.7893 26.9606 60 27.4692 60 27.9996V41.9972Z" stroke="#5A2E7E" stroke-width="4" stroke-linecap="round" stroke-linejoin="round"/>
<defs>
<filter id="filter0_d_3337_2040" x="0" y="0" width="87" height="87" filterUnits="userSpaceOnUse" color-interpolation-filters="sRGB">
<feFlood flood-opacity="0" result="BackgroundImageFix"/>
<feColorMatrix in="SourceAlpha" type="matrix" values="0 0 0 0 0 0 0 0 0 0 0 0 0 0 0 0 0 0 127 0" result="hardAlpha"/>
<feOffset dy="4"/>
<feGaussianBlur stdDeviation="2"/>
<feComposite in2="hardAlpha" operator="out"/>
<feColorMatrix type="matrix" values="0 0 0 0 0 0 0 0 0 0 0 0 0 0 0 0 0 0 0.25 0"/>
<feBlend mode="normal" in2="BackgroundImageFix" result="effect1_dropShadow_3337_2040"/>
<feBlend mode="normal" in="SourceGraphic" in2="effect1_dropShadow_3337_2040" result="shape"/>
</filter>
</defs>
</svg>
