<svg width="87" height="87" viewBox="0 0 87 87" fill="none" xmlns="http://www.w3.org/2000/svg">
<g filter="url(#filter0_d_3337_2088)">
<circle cx="43.5" cy="39.5" r="39.5" fill="white"/>
</g>
<path d="M36.3327 22.75H32.4993C31.4827 22.75 30.5077 23.1539 29.7888 23.8728C29.0699 24.5916 28.666 25.5667 28.666 26.5833V53.4167C28.666 54.4333 29.0699 55.4084 29.7888 56.1272C30.5077 56.8461 31.4827 57.25 32.4993 57.25H55.4993C56.516 57.25 57.491 56.8461 58.2099 56.1272C58.9288 55.4084 59.3327 54.4333 59.3327 53.4167V26.5833C59.3327 25.5667 58.9288 24.5916 58.2099 23.8728C57.491 23.1539 56.516 22.75 55.4993 22.75H47.8327M36.3327 22.75V40L42.0827 34.25L47.8327 40V22.75M36.3327 22.75H47.8327" stroke="#5A2E7E" stroke-width="4" stroke-linecap="round" stroke-linejoin="round"/>
<defs>
<filter id="filter0_d_3337_2088" x="0" y="0" width="87" height="87" filterUnits="userSpaceOnUse" color-interpolation-filters="sRGB">
<feFlood flood-opacity="0" result="BackgroundImageFix"/>
<feColorMatrix in="SourceAlpha" type="matrix" values="0 0 0 0 0 0 0 0 0 0 0 0 0 0 0 0 0 0 127 0" result="hardAlpha"/>
<feOffset dy="4"/>
<feGaussianBlur stdDeviation="2"/>
<feComposite in2="hardAlpha" operator="out"/>
<feColorMatrix type="matrix" values="0 0 0 0 0 0 0 0 0 0 0 0 0 0 0 0 0 0 0.25 0"/>
<feBlend mode="normal" in2="BackgroundImageFix" result="effect1_dropShadow_3337_2088"/>
<feBlend mode="normal" in="SourceGraphic" in2="effect1_dropShadow_3337_2088" result="shape"/>
</filter>
</defs>
</svg>
