<svg width="87" height="87" viewBox="0 0 87 87" fill="none" xmlns="http://www.w3.org/2000/svg">
<g filter="url(#filter0_d_3337_2076)">
<circle cx="43.5" cy="39.5" r="39.5" fill="white"/>
</g>
<path d="M55.62 55.9167C55.0658 55.9167 54.6018 55.7298 54.228 55.356C53.8542 54.9822 53.6673 54.5182 53.6673 53.964V46.25C53.6673 45.6974 53.8542 45.2342 54.228 44.8604C54.6018 44.4866 55.0658 44.2989 55.62 44.2973H58.9646C59.5189 44.2973 59.9829 44.4842 60.3566 44.858C60.7304 45.2318 60.9173 45.6958 60.9173 46.25V53.964C60.9173 54.5182 60.7304 54.9822 60.3566 55.356C59.9829 55.7298 59.5189 55.9167 58.9646 55.9167H55.62ZM42.3283 55.9167C41.7741 55.9167 41.3101 55.7298 40.9363 55.356C40.5625 54.9822 40.3757 54.5182 40.3757 53.964V24.036C40.3757 23.4834 40.5625 23.0194 40.9363 22.644C41.3101 22.2686 41.7741 22.0817 42.3283 22.0833H45.673C46.2272 22.0833 46.6912 22.2702 47.065 22.644C47.4388 23.0178 47.6257 23.4818 47.6257 24.036V53.964C47.6257 54.5182 47.4388 54.9822 47.065 55.356C46.6912 55.7298 46.2272 55.9167 45.673 55.9167H42.3283ZM29.0367 55.9167C28.4824 55.9167 28.0184 55.7298 27.6447 55.356C27.2709 54.9822 27.084 54.5182 27.084 53.964V35.6771C27.084 35.1003 27.2709 34.6274 27.6447 34.2585C28.0184 33.8895 28.4824 33.7043 29.0367 33.7027H32.3813C32.9339 33.7027 33.3979 33.8895 33.7733 34.2633C34.1487 34.6371 34.3356 35.1011 34.334 35.6553V53.9422C34.334 54.519 34.1471 54.9919 33.7733 55.3608C33.3995 55.7298 32.9355 55.915 32.3813 55.9167H29.0367Z" fill="#5A2E7E"/>
<defs>
<filter id="filter0_d_3337_2076" x="0" y="0" width="87" height="87" filterUnits="userSpaceOnUse" color-interpolation-filters="sRGB">
<feFlood flood-opacity="0" result="BackgroundImageFix"/>
<feColorMatrix in="SourceAlpha" type="matrix" values="0 0 0 0 0 0 0 0 0 0 0 0 0 0 0 0 0 0 127 0" result="hardAlpha"/>
<feOffset dy="4"/>
<feGaussianBlur stdDeviation="2"/>
<feComposite in2="hardAlpha" operator="out"/>
<feColorMatrix type="matrix" values="0 0 0 0 0 0 0 0 0 0 0 0 0 0 0 0 0 0 0.25 0"/>
<feBlend mode="normal" in2="BackgroundImageFix" result="effect1_dropShadow_3337_2076"/>
<feBlend mode="normal" in="SourceGraphic" in2="effect1_dropShadow_3337_2076" result="shape"/>
</filter>
</defs>
</svg>
